<?xml version="1.0" encoding="utf-8"?>
<!-- Generator: Adobe Illustrator 21.1.0, SVG Export Plug-In . SVG Version: 6.00 Build 0)  -->
<svg version="1.1" xmlns="http://www.w3.org/2000/svg" xmlns:xlink="http://www.w3.org/1999/xlink" x="0px" y="0px"
	 viewBox="0 0 300 300" style="enable-background:new 0 0 300 300;" xml:space="preserve">
<style type="text/css">
	.st0{fill:#383838;}
	.st1{fill:#FCD515;}
	.st2{fill:#FCBB15;}
	.st3{fill:url(#SVGID_1_);}
	.st4{fill:#95989A;}
	
		.st5{fill-rule:evenodd;clip-rule:evenodd;fill:none;stroke:#95989A;stroke-width:3.0399;stroke-linecap:round;stroke-linejoin:round;stroke-miterlimit:10;}
	.st6{fill:none;stroke:#95989A;stroke-width:3.0399;stroke-linecap:round;stroke-linejoin:round;stroke-miterlimit:10;}
	.st7{fill:none;stroke:#95989A;stroke-width:3;stroke-linecap:round;stroke-linejoin:round;stroke-miterlimit:10;}
	
		.st8{fill-rule:evenodd;clip-rule:evenodd;fill:none;stroke:#95989A;stroke-width:3;stroke-linecap:round;stroke-linejoin:round;stroke-miterlimit:10;}
	.st9{fill:none;stroke:#FFFFFF;stroke-linecap:round;stroke-linejoin:round;stroke-miterlimit:10;}
	
		.st10{fill-rule:evenodd;clip-rule:evenodd;fill:none;stroke:#FFFFFF;stroke-linecap:round;stroke-linejoin:round;stroke-miterlimit:10;}
	.st11{fill:none;stroke:#FCBB15;stroke-width:3;stroke-linecap:round;stroke-linejoin:round;stroke-miterlimit:10;}
	
		.st12{fill-rule:evenodd;clip-rule:evenodd;fill:#FCBB15;stroke:#FCBB15;stroke-width:3;stroke-linecap:round;stroke-linejoin:round;stroke-miterlimit:10;}
	
		.st13{fill-rule:evenodd;clip-rule:evenodd;fill:#FCBB15;stroke:#000000;stroke-width:5;stroke-linecap:round;stroke-linejoin:round;stroke-miterlimit:10;}
	.st14{fill:#FCD515;stroke:#000000;stroke-width:5;stroke-linecap:round;stroke-linejoin:round;stroke-miterlimit:10;}
	.st15{fill:#FFFFFF;stroke:#000000;stroke-width:5;stroke-linecap:round;stroke-linejoin:round;stroke-miterlimit:10;}
	.st16{fill:#FFFFFF;}
	
		.st17{fill:#FFFFFF;fill-opacity:0.2;stroke:#FCD515;stroke-width:3;stroke-linecap:round;stroke-linejoin:round;stroke-miterlimit:10;}
	
		.st18{fill-rule:evenodd;clip-rule:evenodd;fill:#FCBB15;stroke:#FCBB15;stroke-width:3.0399;stroke-linecap:round;stroke-linejoin:round;stroke-miterlimit:10;}
	.st19{fill:none;stroke:#FCBB15;stroke-width:3.0399;stroke-linecap:round;stroke-linejoin:round;stroke-miterlimit:10;}
	.st20{fill:#FCBB15;stroke:#FCBB15;stroke-width:3;stroke-linecap:round;stroke-linejoin:round;stroke-miterlimit:10;}
	
		.st21{fill-rule:evenodd;clip-rule:evenodd;fill:none;stroke:#FCBB15;stroke-width:3;stroke-linecap:round;stroke-linejoin:round;stroke-miterlimit:10;}
	.st22{fill:none;stroke:#FFFFFF;stroke-width:3;stroke-linecap:round;stroke-linejoin:round;stroke-miterlimit:10;}
	.st23{fill:none;stroke:#FCBB15;stroke-width:3;stroke-linejoin:round;stroke-miterlimit:10;}
	.st24{fill:none;stroke:#FFFFFF;stroke-width:11.7801;stroke-miterlimit:10;}
	.st25{fill:none;stroke:#FFFFFF;stroke-width:11.7801;stroke-linecap:round;stroke-linejoin:round;stroke-miterlimit:10;}
	.st26{fill:none;stroke:#000000;stroke-width:2.4772;stroke-miterlimit:10;}
	.st27{fill:none;stroke:#000000;stroke-width:2.4772;stroke-linecap:round;stroke-linejoin:round;stroke-miterlimit:10;}
	.st28{fill:none;stroke:#FCBB15;stroke-width:2.4772;stroke-linecap:round;stroke-linejoin:round;stroke-miterlimit:10;}
	.st29{opacity:0.5;}
	.st30{fill:#ED3845;}
	.st31{fill:none;stroke:#000000;stroke-width:3.4542;stroke-miterlimit:10;}
	.st32{fill:none;stroke:#000000;stroke-width:3.4542;stroke-linecap:round;stroke-linejoin:round;stroke-miterlimit:10;}
	.st33{fill:none;stroke:#ED3845;stroke-width:3.4542;stroke-linecap:round;stroke-linejoin:round;stroke-miterlimit:10;}
	.st34{fill:none;stroke:#FFFFFF;stroke-width:11.7801;stroke-linecap:round;stroke-linejoin:round;}
	.st35{fill:none;stroke:#FFFFFF;stroke-width:6.5755;stroke-miterlimit:10;}
	.st36{fill:none;stroke:#FFFFFF;stroke-width:6.5755;stroke-linecap:round;stroke-linejoin:round;stroke-miterlimit:10;}
	.st37{fill:none;stroke:#FFFFFF;stroke-width:6.5755;stroke-linecap:round;stroke-linejoin:round;}
	.st38{fill:none;stroke:#000000;stroke-width:5;stroke-linecap:round;stroke-linejoin:round;stroke-miterlimit:10;}
	.st39{fill:none;stroke:#000000;stroke-width:0.3148;stroke-linecap:round;stroke-linejoin:round;stroke-miterlimit:10;}
	.st40{fill:none;stroke:#ED3845;stroke-width:3;stroke-linecap:round;stroke-linejoin:round;stroke-miterlimit:10;}
	.st41{fill:none;stroke:#95989A;stroke-width:0.3148;stroke-linecap:round;stroke-linejoin:round;stroke-miterlimit:10;}
	.st42{fill:none;stroke:#FCBB15;stroke-width:1.6509;stroke-linecap:round;stroke-linejoin:round;stroke-miterlimit:10;}
	.st43{fill:none;stroke:#95989A;stroke-width:1.6509;stroke-linecap:round;stroke-linejoin:round;stroke-miterlimit:10;}
	.st44{fill:none;stroke:#000000;stroke-width:3;stroke-linecap:round;stroke-linejoin:round;stroke-miterlimit:10;}
	.st45{fill:#95989A;stroke:#95989A;stroke-width:1.5717;stroke-linecap:round;stroke-linejoin:round;stroke-miterlimit:10;}
	.st46{fill:#FCBB15;stroke:#FCBB15;stroke-width:1.5717;stroke-linecap:round;stroke-linejoin:round;stroke-miterlimit:10;}
	.st47{fill:none;}
	
		.st48{opacity:0.2;fill:none;stroke:#FF75A3;stroke-width:0.6316;stroke-linecap:round;stroke-linejoin:round;stroke-miterlimit:10;}
	.st49{fill:#FCBB15;stroke:#FCBB15;stroke-width:2.4772;stroke-linecap:round;stroke-linejoin:round;stroke-miterlimit:10;}
</style>
<g id="backing">
	<linearGradient id="SVGID_1_" gradientUnits="userSpaceOnUse" x1="150" y1="0.7853" x2="150" y2="300.7853">
		<stop  offset="0" style="stop-color:#FFCC00"/>
		<stop  offset="1" style="stop-color:#FF9900"/>
	</linearGradient>
	<rect class="st3" width="300" height="300"/>
</g>
<g id="main">
	<g id="XMLID_16_">
		<g>
			<path class="st16" d="M182.5,214.7v36.6c0,8-6.5,14.5-14.5,14.5h-9v-6c0-2.3-1.9-4.2-4.2-4.2h-8.7c-2.3,0-4.2,1.9-4.2,4.2v6H132
				c-8,0-14.5-6.5-14.5-14.5v-36.6c2.7,1,5.5,1.9,8.4,2.6v20.1c0,2.8,2.2,5,5,5h0.2c2.8,0,5-2.2,5-5v-18.1c4.5,0.7,9.2,1,13.9,1
				c4.7,0,9.3-0.3,13.9-1v18c0,2.8,2.3,5.1,5.1,5.1c2.8,0,5.1-2.3,5.1-5.1v-20C176.9,216.6,179.7,215.7,182.5,214.7z"/>
			<path class="st16" d="M174.3,95.2v8c0,2.3-1.9,4.2-4.2,4.2h-1.9c-2.3,0-4.2-1.9-4.2-4.2v-8c0-2.3,1.9-4.2,4.2-4.2h1.9
				C172.4,91,174.3,92.9,174.3,95.2z"/>
			<path class="st16" d="M174.1,217.3v20c0,2.8-2.3,5.1-5.1,5.1c-2.8,0-5.1-2.3-5.1-5.1v-18C167.3,218.9,170.8,218.2,174.1,217.3z"
				/>
			<path class="st16" d="M174.1,199.3v18c-3.3,0.9-6.7,1.6-10.2,2.1V198h4.1C170.2,198,172.2,198.4,174.1,199.3z"/>
			<path class="st16" d="M174.1,131.2v68.1c-1.8-0.9-3.9-1.3-6.1-1.3h-4.1v-66.7c0-2.8,2.3-5.1,5.1-5.1c1.4,0,2.7,0.6,3.6,1.5
				C173.5,128.5,174.1,129.8,174.1,131.2z"/>
			<path class="st16" d="M159,259.7v6h-17.1v-6c0-2.3,1.9-4.2,4.2-4.2h8.7C157.1,255.5,159,257.4,159,259.7z"/>
			<path class="st16" d="M136.3,95.1v8.2c0,2.3-1.8,4.1-4.1,4.1h-2c-2.3,0-4.1-1.8-4.1-4.1v-8.2c0-2.3,1.8-4.1,4.1-4.1h2
				C134.5,91,136.3,92.8,136.3,95.1z"/>
			<path class="st16" d="M136.1,219.4v18.1c0,2.8-2.2,5-5,5h-0.2c-2.8,0-5-2.2-5-5v-20.1C129.2,218.2,132.7,218.9,136.1,219.4z"/>
			<path class="st16" d="M136.1,198v21.4c-3.5-0.5-6.9-1.2-10.2-2.1v-18c1.8-0.9,3.9-1.3,6.1-1.3H136.1z"/>
			<path class="st16" d="M136.1,131.1V198H132c-2.2,0-4.2,0.5-6.1,1.3v-68.2c0-2.8,2.2-5,5-5h0.2
				C133.9,126.1,136.1,128.3,136.1,131.1z"/>
		</g>
		<g>
			<path class="st24" d="M117.5,214.7c-36.1-13.2-61.8-47.9-61.8-88.6c0-52.1,42.2-94.3,94.3-94.3s94.3,42.2,94.3,94.3
				c0,40.7-25.8,75.3-61.8,88.6c-2.7,1-5.5,1.9-8.4,2.6c-3.3,0.9-6.7,1.6-10.2,2.1c-4.5,0.7-9.2,1-13.9,1c-4.7,0-9.3-0.3-13.9-1
				c-3.5-0.5-6.9-1.2-10.2-2.1C123.1,216.6,120.3,215.7,117.5,214.7z"/>
			<path class="st25" d="M182.5,214.7v36.6c0,8-6.5,14.5-14.5,14.5h-9h-17.1H132c-8,0-14.5-6.5-14.5-14.5v-36.6"/>
			<path class="st25" d="M159,265.7v7.4c0,2.3-1.9,4.2-4.2,4.2h-8.7c-2.3,0-4.2-1.9-4.2-4.2v-7.4v-6c0-2.3,1.9-4.2,4.2-4.2h8.7
				c2.3,0,4.2,1.9,4.2,4.2V265.7z"/>
			<path class="st25" d="M136.1,219.4v18.1c0,2.8-2.2,5-5,5h-0.2c-2.8,0-5-2.2-5-5v-20.1v-18v-68.2c0-2.8,2.2-5,5-5h0.2
				c2.8,0,5,2.2,5,5V198V219.4z"/>
			<path class="st25" d="M174.1,217.3v20c0,2.8-2.3,5.1-5.1,5.1c-2.8,0-5.1-2.3-5.1-5.1v-18V198v-66.7c0-2.8,2.3-5.1,5.1-5.1
				c1.4,0,2.7,0.6,3.6,1.5c0.9,0.9,1.5,2.2,1.5,3.6v68.1V217.3z"/>
			<path class="st24" d="M132.2,107.3h-2c-2.3,0-4.1-1.8-4.1-4.1v-8.2c0-2.3,1.8-4.1,4.1-4.1h2c2.3,0,4.1,1.8,4.1,4.1v8.2
				C136.3,105.5,134.5,107.3,132.2,107.3z"/>
			<path class="st24" d="M170.1,107.3h-1.9c-2.3,0-4.2-1.9-4.2-4.2v-8c0-2.3,1.9-4.2,4.2-4.2h1.9c2.3,0,4.2,1.9,4.2,4.2v8
				C174.3,105.5,172.4,107.3,170.1,107.3z"/>
		</g>
	</g>
	<g id="XMLID_1_">
		<g>
			<path class="st34" d="M107.9,67.8c4.9-3.5,10.2-6.4,15.8-8.6"/>
			<path class="st34" d="M79.9,144.2c-1.4-5.7-2.2-11.6-2.2-17.7c0-14.2,4.1-27.4,11.2-38.6"/>
		</g>
	</g>
</g>
<g id="active">
</g>
<g id="thing">
</g>
<g id="Pattern_Editing_Mode">
</g>
<g id="Layer_1">
</g>
<g id="Isolation_Mode">
</g>
</svg>
